<mxfile host="app.diagrams.net" modified="2023-06-13T11:26:42.767Z" agent="Mozilla/5.0 (Windows NT 10.0; Win64; x64; rv:109.0) Gecko/20100101 Firefox/112.0" version="21.3.8" etag="TV4060ONxCpeN6X-YEdW" type="github">
  <diagram name="Page-1" id="jOB9RBpzngH0Vk2eLkoH">
    <mxGraphModel>
      <root>
        <mxCell id="0" />
        <mxCell id="1" parent="0" />
      </root>
    </mxGraphModel>
  </diagram>
</mxfile>
